<?xml version="1.0" encoding="UTF-8"?>
<svg xmlns="http://www.w3.org/2000/svg" xmlns:xlink="http://www.w3.org/1999/xlink" width="90pt" height="74.999997pt" viewBox="0 0 90 74.999997" version="1.2">
<defs>
<clipPath id="clip1">
  <path d="M 2.238281 4 L 87.726562 4 L 87.726562 60.917969 L 2.238281 60.917969 Z M 2.238281 4 "/>
</clipPath>
</defs>
<g id="surface1">
<g clip-path="url(#clip1)" clip-rule="nonzero">
<path style=" stroke:none;fill-rule:nonzero;fill:rgb(59.609985%,71.759033%,89.408875%);fill-opacity:1;" d="M 69.996094 21.222656 C 69.964844 20.867188 69.921875 20.507812 69.867188 20.152344 C 68.542969 12.132812 60.964844 6.703125 52.929688 8.023438 C 49.683594 8.554688 46.867188 10.105469 44.742188 12.289062 C 40.839844 6.585938 33.855469 3.332031 26.574219 4.523438 C 16.554688 6.167969 9.765625 15.605469 11.414062 25.605469 C 11.535156 26.332031 11.703125 27.046875 11.902344 27.738281 C 6.179688 30.613281 2.25 36.519531 2.25 43.351562 C 2.25 52.996094 10.089844 60.816406 19.753906 60.816406 L 39.976562 60.816406 L 39.976562 46.378906 L 33.011719 46.378906 L 45 29.003906 L 56.984375 46.378906 L 50.023438 46.378906 L 50.023438 60.816406 L 70.121094 60.816406 L 70.121094 60.679688 C 80.042969 59.558594 87.75 51.160156 87.75 40.964844 C 87.75 30.71875 79.976562 22.292969 69.996094 21.222656 "/>
</g>
<path style=" stroke:none;fill-rule:nonzero;fill:rgb(100%,100%,100%);fill-opacity:1;" d="M 22.699219 16.921875 C 20.464844 20.085938 17.304688 21.707031 15.636719 20.539062 C 13.96875 19.371094 14.429688 15.851562 16.660156 12.683594 C 18.894531 9.511719 22.058594 7.894531 23.722656 9.066406 C 25.390625 10.234375 24.933594 13.753906 22.699219 16.921875 "/>
</g>
</svg>
