<?xml version="1.0" encoding="UTF-8"?>
<svg xmlns="http://www.w3.org/2000/svg" xmlns:xlink="http://www.w3.org/1999/xlink" width="90pt" height="74.999997pt" viewBox="0 0 90 74.999997" version="1.2">
<defs>
<clipPath id="clip1">
  <path d="M 11.25 3.75 L 78.75 3.75 L 78.75 71 L 11.25 71 Z M 11.25 3.75 "/>
</clipPath>
</defs>
<g id="surface1">
<path style=" stroke:none;fill-rule:nonzero;fill:rgb(0%,93.328857%,81.959534%);fill-opacity:1;" d="M 77.515625 18.464844 L 77.515625 45.417969 C 77.515625 45.839844 77.402344 46.230469 77.183594 46.589844 C 76.964844 46.949219 76.664062 47.226562 76.289062 47.417969 L 14.621094 47.664062 C 14.320312 47.664062 14.035156 47.605469 13.761719 47.492188 C 13.484375 47.378906 13.242188 47.214844 13.03125 47.003906 C 12.824219 46.792969 12.660156 46.550781 12.546875 46.277344 C 12.429688 46 12.375 45.714844 12.375 45.417969 L 12.375 18.464844 Z M 77.515625 18.464844 "/>
<path style=" stroke:none;fill-rule:nonzero;fill:rgb(34.118652%,64.309692%,100%);fill-opacity:1;" d="M 77.515625 16.214844 L 77.515625 18.464844 L 12.375 18.464844 L 12.375 7.230469 C 12.375 6.933594 12.429688 6.648438 12.546875 6.375 C 12.660156 6.097656 12.824219 5.855469 13.03125 5.644531 C 13.242188 5.433594 13.484375 5.273438 13.761719 5.160156 C 14.035156 5.042969 14.320312 4.984375 14.621094 4.984375 L 42.429688 4.984375 C 42.855469 4.984375 43.25 5.097656 43.609375 5.324219 C 43.972656 5.546875 44.25 5.851562 44.4375 6.230469 L 47.695312 12.722656 C 47.886719 13.105469 48.160156 13.410156 48.523438 13.632812 C 48.886719 13.859375 49.28125 13.96875 49.707031 13.96875 L 75.269531 13.96875 C 75.566406 13.972656 75.851562 14.027344 76.125 14.144531 C 76.402344 14.257812 76.644531 14.417969 76.855469 14.628906 C 77.066406 14.839844 77.226562 15.082031 77.339844 15.359375 C 77.457031 15.632812 77.515625 15.917969 77.515625 16.214844 Z M 77.515625 16.214844 "/>
<path style=" stroke:none;fill-rule:nonzero;fill:rgb(0%,86.669922%,76.078796%);fill-opacity:1;" d="M 77.515625 18.464844 L 77.515625 45.417969 C 77.515625 45.839844 77.402344 46.230469 77.183594 46.589844 C 76.964844 46.949219 76.664062 47.226562 76.289062 47.417969 L 14.621094 47.664062 C 14.53125 47.667969 14.445312 47.660156 14.359375 47.640625 L 71.796875 47.417969 C 72.171875 47.226562 72.472656 46.949219 72.691406 46.589844 C 72.910156 46.230469 73.023438 45.839844 73.023438 45.417969 L 73.023438 18.464844 Z M 77.515625 18.464844 "/>
<path style=" stroke:none;fill-rule:nonzero;fill:rgb(14.118958%,53.329468%,100%);fill-opacity:1;" d="M 77.515625 16.214844 L 77.515625 18.464844 L 73.023438 18.464844 L 73.023438 16.214844 C 73.019531 15.917969 72.964844 15.632812 72.847656 15.359375 C 72.734375 15.082031 72.574219 14.839844 72.363281 14.628906 C 72.152344 14.417969 71.910156 14.257812 71.632812 14.144531 C 71.359375 14.027344 71.074219 13.972656 70.777344 13.96875 L 75.269531 13.96875 C 75.566406 13.972656 75.851562 14.027344 76.125 14.144531 C 76.402344 14.257812 76.644531 14.417969 76.855469 14.628906 C 77.066406 14.839844 77.226562 15.082031 77.339844 15.359375 C 77.457031 15.632812 77.515625 15.917969 77.515625 16.214844 Z M 77.515625 16.214844 "/>
<path style=" stroke:none;fill-rule:nonzero;fill:rgb(77.648926%,77.249146%,79.219055%);fill-opacity:1;" d="M 68.53125 9.476562 L 70.777344 13.96875 L 59.542969 13.96875 L 57.296875 9.476562 Z M 68.53125 9.476562 "/>
<path style=" stroke:none;fill-rule:nonzero;fill:rgb(100%,47.44873%,33.729553%);fill-opacity:1;" d="M 76.503906 59.042969 L 73.3125 60.582031 L 73.574219 64.105469 L 70.058594 64.464844 L 69.089844 67.871094 L 65.664062 67.003906 L 63.585938 69.867188 L 60.667969 67.878906 L 57.746094 69.867188 L 55.667969 67.003906 L 52.246094 67.871094 L 51.277344 64.464844 L 47.761719 64.105469 L 48.019531 60.582031 L 44.832031 59.042969 L 46.292969 55.816406 L 43.820312 53.28125 L 46.292969 50.742188 L 45.910156 49.910156 L 44.832031 47.519531 L 48.019531 45.980469 L 47.761719 42.453125 L 51.277344 42.09375 L 52.246094 38.691406 L 55.667969 39.554688 L 57.746094 36.691406 L 60.667969 38.679688 L 63.585938 36.691406 L 65.664062 39.554688 L 69.089844 38.691406 L 70.058594 42.09375 L 73.574219 42.453125 L 73.3125 45.980469 L 76.503906 47.519531 L 75.425781 49.910156 L 75.042969 50.742188 L 77.515625 53.28125 L 75.042969 55.816406 Z M 76.503906 59.042969 "/>
<path style=" stroke:none;fill-rule:nonzero;fill:rgb(100%,31.369019%,13.729858%);fill-opacity:1;" d="M 76.503906 59.042969 L 73.3125 60.582031 L 73.574219 64.105469 L 70.058594 64.464844 L 69.089844 67.871094 L 65.664062 67.003906 L 63.585938 69.867188 L 60.667969 67.878906 L 57.746094 69.867188 L 55.667969 67.003906 L 52.246094 67.871094 L 51.277344 64.464844 L 47.761719 64.105469 L 47.898438 62.242188 C 49.445312 62.328125 50.992188 62.273438 52.527344 62.074219 C 54.066406 61.875 55.574219 61.535156 57.050781 61.054688 C 58.527344 60.578125 59.945312 59.96875 61.308594 59.226562 C 62.671875 58.488281 63.957031 57.628906 65.160156 56.648438 C 67.304688 54.828125 69.101562 52.707031 70.542969 50.289062 C 71.980469 47.871094 72.992188 45.285156 73.574219 42.53125 L 73.3125 45.980469 L 76.503906 47.519531 L 75.425781 49.910156 L 75.042969 50.742188 L 77.515625 53.28125 L 75.042969 55.816406 Z M 76.503906 59.042969 "/>
<path style=" stroke:none;fill-rule:nonzero;fill:rgb(100%,87.059021%,33.329773%);fill-opacity:1;" d="M 69.652344 58.894531 C 69.652344 59.34375 69.566406 59.773438 69.394531 60.183594 C 69.226562 60.597656 68.980469 60.960938 68.664062 61.277344 C 68.351562 61.59375 67.984375 61.835938 67.574219 62.007812 C 67.160156 62.179688 66.730469 62.265625 66.285156 62.265625 C 65.835938 62.265625 65.40625 62.179688 64.992188 62.007812 C 64.582031 61.835938 64.214844 61.59375 63.902344 61.277344 C 63.585938 60.960938 63.339844 60.597656 63.171875 60.183594 C 63 59.773438 62.914062 59.34375 62.914062 58.894531 C 62.914062 58.449219 63 58.019531 63.171875 57.605469 C 63.339844 57.195312 63.585938 56.828125 63.902344 56.511719 C 64.214844 56.195312 64.582031 55.953125 64.992188 55.78125 C 65.40625 55.613281 65.835938 55.527344 66.285156 55.527344 C 66.730469 55.527344 67.160156 55.613281 67.574219 55.78125 C 67.984375 55.953125 68.351562 56.195312 68.664062 56.511719 C 68.980469 56.828125 69.226562 57.195312 69.394531 57.605469 C 69.566406 58.019531 69.652344 58.449219 69.652344 58.894531 Z M 69.652344 58.894531 "/>
<path style=" stroke:none;fill-rule:nonzero;fill:rgb(100%,87.059021%,33.329773%);fill-opacity:1;" d="M 57.296875 9.476562 L 59.542969 13.96875 L 49.707031 13.96875 C 49.28125 13.96875 48.886719 13.859375 48.523438 13.632812 C 48.160156 13.410156 47.886719 13.105469 47.695312 12.722656 L 46.066406 9.476562 Z M 57.296875 9.476562 "/>
<path style=" stroke:none;fill-rule:nonzero;fill:rgb(100%,87.059021%,33.329773%);fill-opacity:1;" d="M 58.421875 47.664062 C 58.421875 48.109375 58.335938 48.539062 58.164062 48.953125 C 57.992188 49.367188 57.75 49.730469 57.433594 50.046875 C 57.117188 50.363281 56.753906 50.605469 56.339844 50.777344 C 55.929688 50.949219 55.5 51.035156 55.050781 51.035156 C 54.605469 51.035156 54.175781 50.949219 53.761719 50.777344 C 53.351562 50.605469 52.984375 50.363281 52.667969 50.046875 C 52.355469 49.730469 52.109375 49.367188 51.9375 48.953125 C 51.769531 48.539062 51.683594 48.109375 51.683594 47.664062 C 51.683594 47.21875 51.769531 46.789062 51.9375 46.375 C 52.109375 45.960938 52.355469 45.597656 52.667969 45.28125 C 52.984375 44.964844 53.351562 44.722656 53.761719 44.550781 C 54.175781 44.378906 54.605469 44.296875 55.050781 44.296875 C 55.5 44.296875 55.929688 44.378906 56.339844 44.550781 C 56.753906 44.722656 57.117188 44.964844 57.433594 45.28125 C 57.75 45.597656 57.992188 45.960938 58.164062 46.375 C 58.335938 46.789062 58.421875 47.21875 58.421875 47.664062 Z M 58.421875 47.664062 "/>
<path style=" stroke:none;fill-rule:nonzero;fill:rgb(100%,87.059021%,33.329773%);fill-opacity:1;" d="M 34.835938 9.476562 L 39.328125 9.476562 L 39.328125 13.96875 L 34.835938 13.96875 Z M 34.835938 9.476562 "/>
<path style=" stroke:none;fill-rule:nonzero;fill:rgb(100%,87.059021%,33.329773%);fill-opacity:1;" d="M 25.851562 9.476562 L 30.34375 9.476562 L 30.34375 13.96875 L 25.851562 13.96875 Z M 25.851562 9.476562 "/>
<path style=" stroke:none;fill-rule:nonzero;fill:rgb(100%,87.059021%,33.329773%);fill-opacity:1;" d="M 16.867188 9.476562 L 21.359375 9.476562 L 21.359375 13.96875 L 16.867188 13.96875 Z M 16.867188 9.476562 "/>
<path style=" stroke:none;fill-rule:nonzero;fill:rgb(0%,0%,0%);fill-opacity:1;" d="M 66.285156 54.402344 C 65.988281 54.402344 65.695312 54.433594 65.40625 54.488281 C 65.117188 54.546875 64.835938 54.632812 64.5625 54.746094 C 64.292969 54.859375 64.03125 54.996094 63.789062 55.160156 C 63.542969 55.324219 63.316406 55.511719 63.105469 55.71875 C 62.898438 55.925781 62.710938 56.15625 62.546875 56.398438 C 62.382812 56.644531 62.246094 56.902344 62.132812 57.175781 C 62.019531 57.449219 61.933594 57.730469 61.878906 58.019531 C 61.820312 58.308594 61.789062 58.601562 61.789062 58.894531 C 61.789062 59.191406 61.820312 59.484375 61.878906 59.773438 C 61.933594 60.0625 62.019531 60.34375 62.132812 60.613281 C 62.246094 60.886719 62.382812 61.144531 62.546875 61.390625 C 62.710938 61.636719 62.898438 61.863281 63.105469 62.074219 C 63.316406 62.28125 63.542969 62.46875 63.789062 62.632812 C 64.03125 62.792969 64.292969 62.933594 64.5625 63.046875 C 64.835938 63.160156 65.117188 63.246094 65.40625 63.300781 C 65.695312 63.359375 65.988281 63.386719 66.285156 63.386719 C 66.578125 63.386719 66.871094 63.359375 67.160156 63.300781 C 67.449219 63.246094 67.730469 63.160156 68.003906 63.046875 C 68.273438 62.933594 68.535156 62.792969 68.777344 62.632812 C 69.023438 62.46875 69.25 62.28125 69.460938 62.074219 C 69.667969 61.863281 69.855469 61.636719 70.019531 61.390625 C 70.183594 61.144531 70.320312 60.886719 70.433594 60.613281 C 70.546875 60.34375 70.632812 60.0625 70.691406 59.773438 C 70.746094 59.484375 70.777344 59.191406 70.777344 58.894531 C 70.777344 58.601562 70.746094 58.308594 70.691406 58.019531 C 70.632812 57.730469 70.546875 57.449219 70.433594 57.175781 C 70.320312 56.902344 70.183594 56.644531 70.019531 56.398438 C 69.855469 56.15625 69.667969 55.925781 69.460938 55.71875 C 69.25 55.511719 69.023438 55.324219 68.777344 55.160156 C 68.535156 54.996094 68.273438 54.859375 68.003906 54.746094 C 67.730469 54.632812 67.449219 54.546875 67.160156 54.488281 C 66.871094 54.433594 66.578125 54.402344 66.285156 54.402344 Z M 66.285156 61.140625 C 65.984375 61.140625 65.699219 61.085938 65.421875 60.972656 C 65.148438 60.855469 64.90625 60.695312 64.695312 60.484375 C 64.484375 60.273438 64.320312 60.03125 64.207031 59.753906 C 64.09375 59.480469 64.035156 59.195312 64.035156 58.894531 C 64.035156 58.597656 64.09375 58.3125 64.207031 58.035156 C 64.320312 57.761719 64.484375 57.519531 64.695312 57.308594 C 64.90625 57.097656 65.148438 56.933594 65.421875 56.820312 C 65.699219 56.707031 65.984375 56.648438 66.285156 56.648438 C 66.582031 56.648438 66.867188 56.707031 67.144531 56.820312 C 67.417969 56.933594 67.660156 57.097656 67.871094 57.308594 C 68.082031 57.519531 68.246094 57.761719 68.359375 58.035156 C 68.472656 58.3125 68.53125 58.597656 68.53125 58.894531 C 68.53125 59.195312 68.472656 59.480469 68.359375 59.753906 C 68.246094 60.03125 68.082031 60.273438 67.871094 60.484375 C 67.660156 60.695312 67.417969 60.855469 67.144531 60.972656 C 66.867188 61.085938 66.582031 61.140625 66.285156 61.140625 Z M 66.285156 61.140625 "/>
<path style=" stroke:none;fill-rule:nonzero;fill:rgb(0%,0%,0%);fill-opacity:1;" d="M 55.050781 52.15625 C 55.347656 52.15625 55.640625 52.128906 55.929688 52.070312 C 56.21875 52.011719 56.5 51.925781 56.769531 51.816406 C 57.042969 51.703125 57.300781 51.5625 57.546875 51.398438 C 57.792969 51.234375 58.019531 51.050781 58.230469 50.839844 C 58.4375 50.632812 58.625 50.40625 58.789062 50.160156 C 58.953125 49.914062 59.089844 49.65625 59.203125 49.382812 C 59.316406 49.109375 59.402344 48.828125 59.457031 48.539062 C 59.515625 48.25 59.542969 47.960938 59.542969 47.664062 C 59.542969 47.371094 59.515625 47.078125 59.457031 46.789062 C 59.402344 46.5 59.316406 46.21875 59.203125 45.945312 C 59.089844 45.671875 58.953125 45.414062 58.789062 45.167969 C 58.625 44.921875 58.4375 44.695312 58.230469 44.488281 C 58.019531 44.277344 57.792969 44.09375 57.546875 43.929688 C 57.300781 43.765625 57.042969 43.625 56.769531 43.515625 C 56.5 43.402344 56.21875 43.316406 55.929688 43.257812 C 55.640625 43.199219 55.347656 43.171875 55.050781 43.171875 C 54.757812 43.171875 54.464844 43.199219 54.175781 43.257812 C 53.886719 43.316406 53.605469 43.402344 53.332031 43.515625 C 53.058594 43.625 52.800781 43.765625 52.554688 43.929688 C 52.3125 44.09375 52.082031 44.277344 51.875 44.488281 C 51.667969 44.695312 51.480469 44.921875 51.316406 45.167969 C 51.152344 45.414062 51.015625 45.671875 50.902344 45.945312 C 50.789062 46.21875 50.703125 46.5 50.644531 46.789062 C 50.589844 47.078125 50.558594 47.371094 50.558594 47.664062 C 50.558594 47.960938 50.589844 48.25 50.644531 48.539062 C 50.703125 48.828125 50.789062 49.109375 50.902344 49.382812 C 51.015625 49.65625 51.152344 49.914062 51.316406 50.160156 C 51.480469 50.40625 51.667969 50.632812 51.875 50.839844 C 52.082031 51.050781 52.3125 51.234375 52.554688 51.398438 C 52.800781 51.5625 53.058594 51.703125 53.332031 51.816406 C 53.605469 51.925781 53.886719 52.011719 54.175781 52.070312 C 54.464844 52.128906 54.757812 52.15625 55.050781 52.15625 Z M 55.050781 45.417969 C 55.351562 45.417969 55.636719 45.476562 55.910156 45.589844 C 56.1875 45.703125 56.429688 45.867188 56.640625 46.074219 C 56.851562 46.285156 57.011719 46.53125 57.128906 46.804688 C 57.242188 47.078125 57.296875 47.367188 57.296875 47.664062 C 57.296875 47.960938 57.242188 48.25 57.128906 48.523438 C 57.011719 48.800781 56.851562 49.042969 56.640625 49.253906 C 56.429688 49.464844 56.1875 49.625 55.910156 49.738281 C 55.636719 49.855469 55.351562 49.910156 55.050781 49.910156 C 54.753906 49.910156 54.46875 49.855469 54.191406 49.738281 C 53.917969 49.625 53.675781 49.464844 53.464844 49.253906 C 53.253906 49.042969 53.089844 48.800781 52.976562 48.523438 C 52.863281 48.25 52.804688 47.960938 52.804688 47.664062 C 52.804688 47.367188 52.863281 47.078125 52.976562 46.804688 C 53.089844 46.53125 53.253906 46.285156 53.464844 46.074219 C 53.675781 45.867188 53.917969 45.703125 54.191406 45.589844 C 54.46875 45.476562 54.753906 45.417969 55.050781 45.417969 Z M 55.050781 45.417969 "/>
<path style=" stroke:none;fill-rule:nonzero;fill:rgb(0%,0%,0%);fill-opacity:1;" d="M 50.886719 61.472656 L 68.859375 43.5 L 70.445312 45.089844 L 52.476562 63.058594 Z M 50.886719 61.472656 "/>
<g clip-path="url(#clip1)" clip-rule="nonzero">
<path style=" stroke:none;fill-rule:nonzero;fill:rgb(0%,0%,0%);fill-opacity:1;" d="M 77.542969 47.902344 C 78.277344 47.238281 78.640625 46.410156 78.636719 45.417969 L 78.636719 16.214844 C 78.636719 15.769531 78.550781 15.339844 78.382812 14.925781 C 78.210938 14.515625 77.964844 14.148438 77.652344 13.835938 C 77.335938 13.519531 76.96875 13.273438 76.558594 13.105469 C 76.144531 12.933594 75.714844 12.847656 75.269531 12.847656 L 71.46875 12.847656 L 69.539062 8.976562 C 69.445312 8.785156 69.304688 8.632812 69.125 8.519531 C 68.941406 8.410156 68.742188 8.355469 68.53125 8.355469 L 46.761719 8.355469 L 45.441406 5.730469 C 45.160156 5.15625 44.746094 4.703125 44.203125 4.363281 C 43.660156 4.027344 43.066406 3.859375 42.429688 3.863281 L 14.621094 3.863281 C 14.171875 3.863281 13.742188 3.949219 13.328125 4.117188 C 12.917969 4.289062 12.554688 4.535156 12.238281 4.847656 C 11.921875 5.164062 11.675781 5.53125 11.507812 5.941406 C 11.335938 6.355469 11.25 6.785156 11.25 7.230469 L 11.25 45.417969 C 11.25 45.863281 11.335938 46.292969 11.507812 46.707031 C 11.675781 47.121094 11.921875 47.484375 12.238281 47.800781 C 12.554688 48.117188 12.917969 48.359375 13.328125 48.53125 C 13.742188 48.703125 14.171875 48.789062 14.621094 48.789062 L 44.175781 48.789062 L 44.945312 50.507812 L 43.015625 52.492188 C 42.914062 52.597656 42.835938 52.71875 42.78125 52.855469 C 42.726562 52.988281 42.699219 53.128906 42.699219 53.277344 C 42.699219 53.421875 42.726562 53.5625 42.78125 53.699219 C 42.835938 53.835938 42.914062 53.953125 43.015625 54.058594 L 44.945312 56.054688 L 43.808594 58.582031 C 43.75 58.714844 43.714844 58.855469 43.710938 59.003906 C 43.707031 59.148438 43.726562 59.289062 43.777344 59.429688 C 43.828125 59.566406 43.902344 59.6875 44 59.796875 C 44.097656 59.90625 44.214844 59.992188 44.34375 60.054688 L 46.84375 61.261719 L 46.640625 64.027344 C 46.628906 64.171875 46.648438 64.316406 46.691406 64.457031 C 46.738281 64.59375 46.808594 64.71875 46.902344 64.832031 C 46.996094 64.945312 47.109375 65.035156 47.238281 65.101562 C 47.367188 65.171875 47.507812 65.210938 47.652344 65.226562 L 50.414062 65.503906 L 51.164062 68.175781 C 51.203125 68.316406 51.269531 68.445312 51.359375 68.5625 C 51.445312 68.675781 51.554688 68.773438 51.683594 68.84375 C 51.808594 68.917969 51.945312 68.964844 52.089844 68.984375 C 52.234375 69.007812 52.378906 69 52.519531 68.960938 L 55.210938 68.28125 L 56.835938 70.527344 C 56.921875 70.648438 57.023438 70.746094 57.148438 70.824219 C 57.273438 70.898438 57.40625 70.953125 57.550781 70.976562 C 57.695312 71.003906 57.839844 71 57.980469 70.96875 C 58.125 70.9375 58.257812 70.882812 58.378906 70.800781 L 60.667969 69.238281 L 62.960938 70.800781 C 63.082031 70.882812 63.214844 70.941406 63.355469 70.96875 C 63.5 71 63.644531 71.003906 63.789062 70.976562 C 63.933594 70.953125 64.066406 70.902344 64.191406 70.824219 C 64.3125 70.746094 64.417969 70.648438 64.503906 70.527344 L 66.128906 68.28125 L 68.824219 68.957031 C 68.964844 68.992188 69.109375 69 69.253906 68.980469 C 69.398438 68.960938 69.535156 68.914062 69.660156 68.839844 C 69.789062 68.765625 69.894531 68.671875 69.984375 68.554688 C 70.074219 68.441406 70.140625 68.3125 70.179688 68.171875 L 70.929688 65.5 L 73.691406 65.222656 C 73.835938 65.207031 73.976562 65.167969 74.105469 65.097656 C 74.234375 65.03125 74.347656 64.941406 74.441406 64.828125 C 74.535156 64.714844 74.605469 64.589844 74.652344 64.449219 C 74.695312 64.3125 74.714844 64.167969 74.703125 64.023438 L 74.5 61.253906 L 77 60.050781 C 77.128906 59.988281 77.246094 59.902344 77.34375 59.792969 C 77.441406 59.683594 77.515625 59.558594 77.566406 59.421875 C 77.617188 59.285156 77.636719 59.144531 77.632812 58.996094 C 77.628906 58.851562 77.59375 58.710938 77.535156 58.578125 L 76.390625 56.054688 L 78.320312 54.066406 C 78.421875 53.960938 78.5 53.839844 78.554688 53.707031 C 78.609375 53.570312 78.636719 53.429688 78.636719 53.285156 C 78.636719 53.136719 78.609375 52.996094 78.554688 52.859375 C 78.5 52.726562 78.421875 52.605469 78.320312 52.5 L 76.390625 50.507812 L 77.53125 47.976562 C 77.535156 47.953125 77.535156 47.929688 77.542969 47.902344 Z M 68.957031 12.847656 L 60.238281 12.847656 L 59.117188 10.601562 L 67.835938 10.601562 Z M 56.605469 10.601562 L 57.726562 12.847656 L 49.707031 12.847656 C 49.492188 12.847656 49.292969 12.792969 49.109375 12.679688 C 48.929688 12.566406 48.789062 12.414062 48.695312 12.21875 L 47.886719 10.601562 Z M 14.621094 6.109375 L 42.429688 6.109375 C 42.640625 6.109375 42.839844 6.164062 43.023438 6.277344 C 43.207031 6.390625 43.34375 6.542969 43.4375 6.734375 L 46.695312 13.226562 C 46.980469 13.796875 47.390625 14.253906 47.933594 14.589844 C 48.476562 14.925781 49.066406 15.09375 49.707031 15.09375 L 75.269531 15.09375 C 75.417969 15.09375 75.558594 15.121094 75.699219 15.179688 C 75.835938 15.234375 75.957031 15.316406 76.0625 15.421875 C 76.167969 15.527344 76.25 15.648438 76.304688 15.785156 C 76.363281 15.925781 76.390625 16.066406 76.390625 16.214844 L 76.390625 17.339844 L 13.496094 17.339844 L 13.496094 7.230469 C 13.496094 7.082031 13.523438 6.941406 13.582031 6.800781 C 13.640625 6.664062 13.71875 6.542969 13.824219 6.4375 C 13.929688 6.332031 14.050781 6.25 14.191406 6.195312 C 14.328125 6.136719 14.46875 6.109375 14.621094 6.109375 Z M 44.34375 46.503906 C 44.324219 46.511719 44.316406 46.53125 44.296875 46.542969 L 14.621094 46.542969 C 14.46875 46.542969 14.328125 46.511719 14.191406 46.457031 C 14.050781 46.398438 13.929688 46.316406 13.824219 46.210938 C 13.71875 46.105469 13.640625 45.984375 13.582031 45.847656 C 13.523438 45.710938 13.496094 45.566406 13.496094 45.417969 L 13.496094 19.585938 L 76.390625 19.585938 L 76.390625 45.417969 C 76.386719 45.671875 76.304688 45.898438 76.148438 46.097656 L 74.492188 45.304688 L 74.695312 42.539062 C 74.703125 42.390625 74.6875 42.25 74.640625 42.109375 C 74.597656 41.96875 74.527344 41.84375 74.433594 41.734375 C 74.339844 41.621094 74.226562 41.53125 74.097656 41.460938 C 73.96875 41.394531 73.828125 41.351562 73.683594 41.339844 L 70.921875 41.058594 L 70.171875 38.390625 C 70.132812 38.25 70.066406 38.121094 69.976562 38.003906 C 69.886719 37.886719 69.78125 37.792969 69.652344 37.71875 C 69.527344 37.648438 69.390625 37.601562 69.246094 37.578125 C 69.101562 37.558594 68.957031 37.566406 68.816406 37.601562 L 66.125 38.285156 L 64.5 36.039062 C 64.414062 35.917969 64.3125 35.820312 64.1875 35.742188 C 64.0625 35.664062 63.929688 35.613281 63.785156 35.589844 C 63.640625 35.5625 63.496094 35.566406 63.355469 35.597656 C 63.210938 35.628906 63.078125 35.683594 62.957031 35.765625 L 60.667969 37.320312 L 58.375 35.757812 C 58.253906 35.675781 58.121094 35.621094 57.976562 35.589844 C 57.835938 35.558594 57.691406 35.554688 57.546875 35.582031 C 57.402344 35.605469 57.269531 35.660156 57.144531 35.734375 C 57.019531 35.8125 56.917969 35.914062 56.832031 36.03125 L 55.207031 38.277344 L 52.511719 37.601562 C 52.371094 37.566406 52.226562 37.558594 52.082031 37.578125 C 51.9375 37.601562 51.800781 37.648438 51.675781 37.71875 C 51.546875 37.792969 51.4375 37.886719 51.351562 38.003906 C 51.261719 38.121094 51.195312 38.25 51.15625 38.390625 L 50.40625 41.058594 L 47.644531 41.335938 C 47.496094 41.351562 47.359375 41.394531 47.230469 41.460938 C 47.101562 41.53125 46.988281 41.621094 46.894531 41.730469 C 46.800781 41.84375 46.730469 41.96875 46.683594 42.109375 C 46.640625 42.25 46.621094 42.390625 46.632812 42.539062 L 46.835938 45.304688 Z M 74.023438 56.273438 L 75.027344 58.503906 L 72.828125 59.566406 C 72.621094 59.664062 72.457031 59.816406 72.34375 60.015625 C 72.226562 60.214844 72.179688 60.429688 72.195312 60.660156 L 72.371094 63.097656 L 69.9375 63.34375 C 69.710938 63.367188 69.507812 63.453125 69.328125 63.601562 C 69.152344 63.75 69.035156 63.933594 68.972656 64.15625 L 68.308594 66.515625 L 65.9375 65.917969 C 65.714844 65.859375 65.496094 65.871094 65.277344 65.949219 C 65.0625 66.027344 64.886719 66.160156 64.753906 66.347656 L 63.320312 68.328125 L 61.300781 66.953125 C 61.109375 66.820312 60.898438 66.757812 60.667969 66.757812 C 60.4375 66.757812 60.226562 66.820312 60.035156 66.953125 L 58.015625 68.328125 L 56.582031 66.347656 C 56.359375 66.035156 56.054688 65.878906 55.671875 65.878906 C 55.578125 65.878906 55.488281 65.890625 55.398438 65.914062 L 53.027344 66.515625 L 52.363281 64.15625 C 52.300781 63.933594 52.179688 63.75 52.003906 63.601562 C 51.828125 63.453125 51.625 63.367188 51.394531 63.34375 L 48.960938 63.097656 L 49.140625 60.65625 C 49.15625 60.429688 49.109375 60.214844 48.992188 60.011719 C 48.875 59.8125 48.714844 59.664062 48.507812 59.5625 L 46.304688 58.503906 L 47.308594 56.273438 C 47.40625 56.0625 47.433594 55.847656 47.390625 55.617188 C 47.351562 55.390625 47.253906 55.195312 47.09375 55.03125 L 45.386719 53.28125 L 47.09375 51.523438 C 47.253906 51.359375 47.351562 51.164062 47.390625 50.9375 C 47.433594 50.710938 47.40625 50.492188 47.308594 50.28125 L 46.304688 48.050781 L 48.507812 46.992188 C 48.714844 46.890625 48.875 46.742188 48.992188 46.542969 C 49.109375 46.34375 49.15625 46.128906 49.140625 45.898438 L 48.960938 43.457031 L 51.394531 43.210938 C 51.625 43.1875 51.828125 43.101562 52.003906 42.953125 C 52.183594 42.804688 52.300781 42.621094 52.363281 42.398438 L 53.027344 40.039062 L 55.398438 40.640625 C 55.621094 40.695312 55.839844 40.683594 56.054688 40.605469 C 56.273438 40.527344 56.449219 40.394531 56.582031 40.207031 L 58.015625 38.230469 L 60.035156 39.609375 C 60.226562 39.738281 60.4375 39.804688 60.667969 39.804688 C 60.898438 39.804688 61.109375 39.738281 61.300781 39.609375 L 63.320312 38.230469 L 64.753906 40.214844 C 64.886719 40.398438 65.0625 40.53125 65.277344 40.613281 C 65.496094 40.691406 65.714844 40.703125 65.9375 40.644531 L 68.308594 40.046875 L 68.972656 42.402344 C 69.035156 42.625 69.152344 42.8125 69.332031 42.960938 C 69.507812 43.109375 69.710938 43.195312 69.941406 43.214844 L 72.375 43.460938 L 72.195312 45.902344 C 72.179688 46.132812 72.226562 46.347656 72.34375 46.546875 C 72.457031 46.746094 72.621094 46.894531 72.828125 46.996094 L 75.027344 48.058594 L 74.023438 50.285156 C 73.929688 50.496094 73.902344 50.714844 73.941406 50.941406 C 73.980469 51.167969 74.082031 51.363281 74.242188 51.53125 L 75.949219 53.28125 L 74.242188 55.035156 C 74.082031 55.199219 73.984375 55.398438 73.941406 55.625 C 73.902344 55.851562 73.929688 56.070312 74.023438 56.277344 Z M 74.023438 56.273438 "/>
</g>
<path style=" stroke:none;fill-rule:nonzero;fill:rgb(0%,0%,0%);fill-opacity:1;" d="M 16.867188 15.09375 L 21.359375 15.09375 C 21.507812 15.09375 21.648438 15.066406 21.789062 15.007812 C 21.925781 14.949219 22.046875 14.871094 22.152344 14.765625 C 22.257812 14.660156 22.339844 14.539062 22.394531 14.398438 C 22.453125 14.261719 22.480469 14.121094 22.480469 13.96875 L 22.480469 9.476562 C 22.480469 9.328125 22.453125 9.1875 22.394531 9.046875 C 22.339844 8.910156 22.257812 8.789062 22.152344 8.683594 C 22.046875 8.578125 21.925781 8.496094 21.789062 8.441406 C 21.648438 8.382812 21.507812 8.355469 21.359375 8.355469 L 16.867188 8.355469 C 16.714844 8.355469 16.574219 8.382812 16.4375 8.441406 C 16.296875 8.496094 16.175781 8.578125 16.070312 8.683594 C 15.964844 8.789062 15.886719 8.910156 15.828125 9.046875 C 15.769531 9.1875 15.742188 9.328125 15.742188 9.476562 L 15.742188 13.96875 C 15.742188 14.121094 15.769531 14.261719 15.828125 14.398438 C 15.886719 14.539062 15.964844 14.660156 16.070312 14.765625 C 16.175781 14.871094 16.296875 14.949219 16.4375 15.007812 C 16.574219 15.066406 16.714844 15.09375 16.867188 15.09375 Z M 17.988281 10.601562 L 20.234375 10.601562 L 20.234375 12.847656 L 17.988281 12.847656 Z M 17.988281 10.601562 "/>
<path style=" stroke:none;fill-rule:nonzero;fill:rgb(0%,0%,0%);fill-opacity:1;" d="M 25.851562 15.09375 L 30.34375 15.09375 C 30.492188 15.09375 30.636719 15.066406 30.773438 15.007812 C 30.910156 14.949219 31.03125 14.871094 31.136719 14.765625 C 31.242188 14.660156 31.324219 14.539062 31.378906 14.398438 C 31.4375 14.261719 31.464844 14.121094 31.464844 13.96875 L 31.464844 9.476562 C 31.464844 9.328125 31.4375 9.1875 31.378906 9.046875 C 31.324219 8.910156 31.242188 8.789062 31.136719 8.683594 C 31.03125 8.578125 30.910156 8.496094 30.773438 8.441406 C 30.636719 8.382812 30.492188 8.355469 30.34375 8.355469 L 25.851562 8.355469 C 25.703125 8.355469 25.558594 8.382812 25.421875 8.441406 C 25.285156 8.496094 25.160156 8.578125 25.054688 8.683594 C 24.953125 8.789062 24.871094 8.910156 24.8125 9.046875 C 24.757812 9.1875 24.726562 9.328125 24.726562 9.476562 L 24.726562 13.96875 C 24.726562 14.121094 24.757812 14.261719 24.8125 14.398438 C 24.871094 14.539062 24.953125 14.660156 25.054688 14.765625 C 25.160156 14.871094 25.285156 14.949219 25.421875 15.007812 C 25.558594 15.066406 25.703125 15.09375 25.851562 15.09375 Z M 26.972656 10.601562 L 29.21875 10.601562 L 29.21875 12.847656 L 26.972656 12.847656 Z M 26.972656 10.601562 "/>
<path style=" stroke:none;fill-rule:nonzero;fill:rgb(0%,0%,0%);fill-opacity:1;" d="M 34.835938 15.09375 L 39.328125 15.09375 C 39.476562 15.09375 39.621094 15.066406 39.757812 15.007812 C 39.894531 14.949219 40.015625 14.871094 40.121094 14.765625 C 40.226562 14.660156 40.308594 14.539062 40.367188 14.398438 C 40.421875 14.261719 40.453125 14.121094 40.453125 13.96875 L 40.453125 9.476562 C 40.453125 9.328125 40.421875 9.1875 40.367188 9.046875 C 40.308594 8.910156 40.226562 8.789062 40.121094 8.683594 C 40.015625 8.578125 39.894531 8.496094 39.757812 8.441406 C 39.621094 8.382812 39.476562 8.355469 39.328125 8.355469 L 34.835938 8.355469 C 34.6875 8.355469 34.542969 8.382812 34.40625 8.441406 C 34.269531 8.496094 34.148438 8.578125 34.042969 8.683594 C 33.9375 8.789062 33.855469 8.910156 33.796875 9.046875 C 33.742188 9.1875 33.710938 9.328125 33.710938 9.476562 L 33.710938 13.96875 C 33.710938 14.121094 33.742188 14.261719 33.796875 14.398438 C 33.855469 14.539062 33.9375 14.660156 34.042969 14.765625 C 34.148438 14.871094 34.269531 14.949219 34.40625 15.007812 C 34.542969 15.066406 34.6875 15.09375 34.835938 15.09375 Z M 35.957031 10.601562 L 38.203125 10.601562 L 38.203125 12.847656 L 35.957031 12.847656 Z M 35.957031 10.601562 "/>
<path style=" stroke:none;fill-rule:nonzero;fill:rgb(0%,0%,0%);fill-opacity:1;" d="M 17.988281 22.957031 L 20.234375 22.957031 L 20.234375 25.203125 L 17.988281 25.203125 Z M 17.988281 22.957031 "/>
<path style=" stroke:none;fill-rule:nonzero;fill:rgb(0%,0%,0%);fill-opacity:1;" d="M 22.480469 22.957031 L 42.699219 22.957031 L 42.699219 25.203125 L 22.480469 25.203125 Z M 22.480469 22.957031 "/>
<path style=" stroke:none;fill-rule:nonzero;fill:rgb(0%,0%,0%);fill-opacity:1;" d="M 17.988281 27.449219 L 20.234375 27.449219 L 20.234375 29.695312 L 17.988281 29.695312 Z M 17.988281 27.449219 "/>
<path style=" stroke:none;fill-rule:nonzero;fill:rgb(0%,0%,0%);fill-opacity:1;" d="M 22.480469 27.449219 L 42.699219 27.449219 L 42.699219 29.695312 L 22.480469 29.695312 Z M 22.480469 27.449219 "/>
<path style=" stroke:none;fill-rule:nonzero;fill:rgb(0%,0%,0%);fill-opacity:1;" d="M 17.988281 31.941406 L 20.234375 31.941406 L 20.234375 34.1875 L 17.988281 34.1875 Z M 17.988281 31.941406 "/>
<path style=" stroke:none;fill-rule:nonzero;fill:rgb(0%,0%,0%);fill-opacity:1;" d="M 22.480469 31.941406 L 42.699219 31.941406 L 42.699219 34.1875 L 22.480469 34.1875 Z M 22.480469 31.941406 "/>
<path style=" stroke:none;fill-rule:nonzero;fill:rgb(0%,0%,0%);fill-opacity:1;" d="M 17.988281 36.433594 L 20.234375 36.433594 L 20.234375 38.679688 L 17.988281 38.679688 Z M 17.988281 36.433594 "/>
<path style=" stroke:none;fill-rule:nonzero;fill:rgb(0%,0%,0%);fill-opacity:1;" d="M 22.480469 36.433594 L 42.699219 36.433594 L 42.699219 38.679688 L 22.480469 38.679688 Z M 22.480469 36.433594 "/>
<path style=" stroke:none;fill-rule:nonzero;fill:rgb(0%,0%,0%);fill-opacity:1;" d="M 17.988281 40.925781 L 20.234375 40.925781 L 20.234375 43.171875 L 17.988281 43.171875 Z M 17.988281 40.925781 "/>
<path style=" stroke:none;fill-rule:nonzero;fill:rgb(0%,0%,0%);fill-opacity:1;" d="M 22.480469 40.925781 L 42.699219 40.925781 L 42.699219 43.171875 L 22.480469 43.171875 Z M 22.480469 40.925781 "/>
</g>
</svg>
